:version 1.10
:name ASF
:units
  mass 1
  length 1
  angle deg
:documentation
  ASF file generated by Kaydara
:root
  axis xyz
  order  tx ty tz rx ry rz
  position 0 0 0
  orientation 0 0 0
:bonedata
  begin
    id 1
    name SpineDummy
    direction 0.999998 -0.00179978 1.38929e-006
    length 3.60008
    axis 0 0 0 xyz
  end
  begin
    id 2
    name Spine
    direction 0.964365 0.262802 0.0305839
    length 8.13928
    axis 1.33928 -1.75354 15.2838 xyz
    dof rx ry rz
  end
  begin
    id 3
    name Spine1
    direction 0.811168 0.572065 0.12144
    length 7.14954
    axis 2.2224 -6.9761 35.2157 xyz
    dof rx ry rz
  end
  begin
    id 4
    name Neck
    direction 0 0 0
    length 0
    axis 2.2224 -6.9761 35.2157 xyz
    dof rx ry rz
  end
  begin
    id 5
    name HeadDummy
    direction 0.810939 0.572387 0.121455
    length 3.55534
    axis 2.2224 -6.9761 35.2157 xyz
  end
  begin
    id 6
    name Head
    direction 0.998226 -0.000232542 0.0595419
    length 7.35666
    axis -3.03688 -3.41352 -0.0133467 xyz
    dof rx ry rz
  end
  begin
    id 7
    name R_ClavicleDummy
    direction 0.531669 -0.194489 -0.824319
    length 2.49392
    axis 2.2224 -6.9761 35.2157 xyz
  end
  begin
    id 8
    name R_Clavicle
    direction -0.155119 0.0480802 -0.986725
    length 4.485
    axis -54.2764 80.6538 162.779 xyz
    dof rx ry rz
  end
  begin
    id 9
    name R_UpperArm
    direction -0.955567 0.200068 -0.216484
    length 10.1122
    axis -72.9943 12.5026 168.175 xyz
    dof rx ry rz
  end
  begin
    id 10
    name R_Forearm
    direction -0.61433 0.385743 0.688332
    length 9.39148
    axis -117.015 -43.4982 147.875 xyz
    dof rx ry rz
  end
  begin
    id 11
    name R_Hand
    direction -0.699429 0.0170333 0.714499
    length 3.66324
    axis -45.0303 -36.7097 175.478 xyz
    dof rx ry rz
  end
  begin
    id 12
    name L_ClavicleDummy
    direction 0.40287 -0.36502 0.839319
    length 2.49392
    axis 2.2224 -6.9761 35.2157 xyz
  end
  begin
    id 13
    name L_Clavicle
    direction -0.231271 -0.0726419 0.970174
    length 4.485
    axis 18.4357 -75.9711 -162.563 xyz
    dof rx ry rz
  end
  begin
    id 14
    name L_UpperArm
    direction -0.917494 0.144359 0.370629
    length 10.1122
    axis 56.0417 -21.7544 171.058 xyz
    dof rx ry rz
  end
  begin
    id 15
    name L_Forearm
    direction -0.496786 0.615074 -0.612281
    length 9.39148
    axis 89.8094 37.7546 128.927 xyz
    dof rx ry rz
  end
  begin
    id 16
    name L_Hand
    direction -0.409932 0.64962 -0.640274
    length 3.66324
    axis -0.424369 32.133 128.52 xyz
    dof rx ry rz
  end
  begin
    id 17
    name L_ThighDummy
    direction -1.84081e-006 1.87549e-006 1
    length 3.13049
    axis 0 0 0 xyz
  end
  begin
    id 18
    name L_Thigh
    direction -0.947739 0.307978 0.083308
    length 17.9961
    axis 173.219 -4.77873 161.998 xyz
    dof rx ry rz
  end
  begin
    id 19
    name L_Calf
    direction -0.728814 -0.684427 0.0197583
    length 13.3367
    axis 167.331 -1.13214 -136.799 xyz
    dof rx ry rz
  end
  begin
    id 20
    name L_Foot
    direction -0.9028 0.418719 0.0981191
    length 5.8674
    axis 163.436 11.5135 -155.37 xyz
    dof rx ry rz
  end
  begin
    id 21
    name L_Toe0
    direction -0.35341 0.886259 0.299411
    length 4.75286
    axis 169.316 -17.4222 111.74 xyz
    dof rx ry rz
  end
  begin
    id 22
    name R_ThighDummy
    direction 9.32778e-007 -8.82053e-007 -1
    length 3.13049
    axis 0 0 0 xyz
  end
  begin
    id 23
    name R_Thigh
    direction -0.925064 0.37528 -0.0585023
    length 17.9961
    axis -178.698 3.35385 157.919 xyz
    dof rx ry rz
  end
  begin
    id 24
    name R_Calf
    direction -0.68969 -0.718776 -0.0876886
    length 13.3367
    axis -160.504 5.03065 -133.817 xyz
    dof rx ry rz
  end
  begin
    id 25
    name R_Foot
    direction -0.857405 0.418858 -0.299022
    length 5.8674
    axis -161.328 4.38911 -154.413 xyz
    dof rx ry rz
  end
  begin
    id 26
    name R_Toe0
    direction -0.100745 0.952789 -0.286433
    length 4.75286
    axis 171.683 16.6445 96.0359 xyz
    dof rx ry rz
  end
:hierarchy
  begin
    root SpineDummy L_ThighDummy R_ThighDummy
    SpineDummy Spine
    Spine Spine1
    Spine1 Neck
    Neck HeadDummy R_ClavicleDummy L_ClavicleDummy
    HeadDummy Head
    R_ClavicleDummy R_Clavicle
    R_Clavicle R_UpperArm
    R_UpperArm R_Forearm
    R_Forearm R_Hand
    L_ClavicleDummy L_Clavicle
    L_Clavicle L_UpperArm
    L_UpperArm L_Forearm
    L_Forearm L_Hand
    L_ThighDummy L_Thigh
    L_Thigh L_Calf
    L_Calf L_Foot
    L_Foot L_Toe0
    R_ThighDummy R_Thigh
    R_Thigh R_Calf
    R_Calf R_Foot
    R_Foot R_Toe0
  end

:SAMPLES-PER-SECOND 30
:FULLY-SPECIFIED
:DEGREES
183
root  -9.82587 21.2034 9.68184 -128.147 -2.12616 73.1774
Spine  12.3855 12.9708 44.1757
Spine1  6.7941 -7.15 -8.97952
Neck  3.97569e-016 0 -2.38542e-015
Head  17.5041 -8.80318 -10.7107
R_Clavicle  -1.39997 3.63305 -5.87784
R_UpperArm  48.1785 20.2064 48.1243
R_Forearm  -3.01257 -8.88161 -6.89663
R_Hand  -0.00852073 36.3415 -18.5321
L_Clavicle  0.303047 4.46627 -4.17299
L_UpperArm  32.2318 -16.7594 4.02439
L_Forearm  39.2923 -18.9045 -23.2465
L_Hand  0.740196 -8.05711 -32.541
L_Thigh  -30.6697 -11.2506 58.795
L_Calf  -1.71785 3.7208 -28.1562
L_Foot  8.88956 19.9002 10.6383
L_Toe0  0.500858 0.0344818 -6.1399
R_Thigh  -12.8309 -6.21391 23.3055
R_Calf  31.3484 -13.0362 -45.5982
R_Foot  17.6745 29.1427 43.3926
R_Toe0  -1.55755 -0.268897 -17.1921
184
root  -9.70542 22.2183 9.38596 -127.02 -1.43092 74.3936
Spine  12.7259 14.2797 42.0177
Spine1  6.76791 -9.11817 -9.82817
Neck  3.97569e-016 0 -2.38542e-015
Head  17.6966 -8.16455 -11.9426
R_Clavicle  -1.5091 3.82967 -6.29365
R_UpperArm  44.5214 30.4456 30.5488
R_Forearm  -18.87 -35.9857 19.063
R_Hand  1.38951 15.5653 -5.78917
L_Clavicle  0.335178 5.09602 -4.92298
L_UpperArm  29.9673 -14.0324 1.6903
L_Forearm  32.3002 -13.8843 -16.5436
L_Hand  0.252447 -6.48615 -29.7542
L_Thigh  -29.6164 -12.1506 55.0845
L_Calf  -0.803212 3.22302 -24.1404
L_Foot  8.65908 21.0479 9.14274
L_Toe0  0.500348 0.0344861 -6.14035
R_Thigh  -11.0536 -6.40903 20.5058
R_Calf  28.7629 -11.8124 -40.194
R_Foot  16.0675 27.786 41.4819
R_Toe0  -1.65511 -0.270016 -17.2479
185
root  -9.53863 23.6801 9.04799 -124.235 -1.07331 75.1338
Spine  12.3693 15.089 38.9253
Spine1  6.34377 -9.26647 -11.2246
Neck  3.97569e-016 0 -2.38542e-015
Head  17.6332 -7.7833 -11.8721
R_Clavicle  -1.45365 2.12655 -6.60259
R_UpperArm  40.3533 33.5104 20.8311
R_Forearm  -33.9487 -50.5251 41.2248
R_Hand  0.105415 9.48975 -11.5674
L_Clavicle  0.296567 6.44289 -5.59681
L_UpperArm  30.1397 -11.2208 -1.43018
L_Forearm  26.2974 -6.496 -7.51735
L_Hand  -0.265925 -4.45448 -26.8959
L_Thigh  -29.3821 -14.0352 49.633
L_Calf  2.97055 2.42625 -17.9131
L_Foot  7.99265 21.8712 6.78946
L_Toe0  0.500411 0.0344856 -6.1403
R_Thigh  -9.12384 -6.76208 16.7295
R_Calf  29.1865 -10.0407 -33.1338
R_Foot  13.5852 26.0053 36.2281
R_Toe0  -1.48274 -0.261391 -17.1519
186
root  -9.37499 25.5128 8.70773 -120.181 -0.463453 75.0404
Spine  10.8387 15.3767 33.9019
Spine1  5.16559 -7.7127 -12.0329
Neck  3.97569e-016 0 -2.38542e-015
Head  16.9664 -7.95042 -9.05343
R_Clavicle  -1.11246 -1.12032 -6.05362
R_UpperArm  40.4128 28.3061 22.0289
R_Forearm  -26.7021 -49.6791 38.5886
R_Hand  -0.0709102 10.7656 -13.1471
L_Clavicle  0.174425 8.59556 -6.25754
L_UpperArm  33.613 -9.32222 -3.92596
L_Forearm  23.4477 1.67786 1.97897
L_Hand  -0.622665 -2.47483 -22.439
L_Thigh  -29.7291 -15.0363 43.8569
L_Calf  14.3485 1.44029 -10.237
L_Foot  3.98702 14.6536 1.17745
L_Toe0  0.501246 0.0344785 -6.13956
R_Thigh  -7.95897 -6.87312 13.8108
R_Calf  35.0009 -8.14801 -26.2018
R_Foot  9.18053 22.0073 23.3483
R_Toe0  0.972619 -0.320421 -15.7177
187
root  -9.19706 27.2969 8.32377 -116.31 0.841758 74.8855
Spine  8.72286 15.5144 27.4627
Spine1  3.5555 -6.22861 -12.0139
Neck  3.97569e-016 0 -2.38542e-015
Head  15.5756 -8.10149 -4.04939
R_Clavicle  -0.740119 -4.63341 -5.23321
R_UpperArm  41.0374 22.9337 22.8047
R_Forearm  -18.5242 -49.0637 37.8688
R_Hand  -0.464014 9.18114 -15.2922
L_Clavicle  0.0538804 10.3677 -6.79903
L_UpperArm  39.2004 -8.17075 -5.28419
L_Forearm  23.5971 8.4058 9.87117
L_Hand  -0.724041 -0.476024 -15.987
L_Thigh  -30.7516 -13.6775 37.955
L_Calf  26.7886 0.442413 -2.64827
L_Foot  -1.12149 -2.8291 -1.94429
L_Toe0  0.50305 0.0344632 -6.13797
R_Thigh  -7.69023 -6.01803 13.156
R_Calf  38.9422 -6.7841 -21.4658
R_Foot  3.70614 12.3243 7.20034
R_Toe0  6.98381 -1.05553 -12.0356
188
root  -9.04906 28.7878 7.87603 -113.444 1.96224 75.3467
Spine  6.39757 15.1112 21.3184
Spine1  1.98676 -5.10237 -11.6187
Neck  3.97569e-016 0 -2.38542e-015
Head  14.3705 -7.63496 0.988111
R_Clavicle  -0.474624 -7.64688 -4.67257
R_UpperArm  42.0111 17.4638 23.7752
R_Forearm  -9.81309 -46.3963 33.9943
R_Hand  -0.232898 5.86605 -11.7011
L_Clavicle  0.00663041 10.9691 -6.94133
L_UpperArm  43.2825 -6.42484 -5.39961
L_Forearm  24.841 12.4896 14.8706
L_Hand  -0.657424 1.33631 -10.8168
L_Thigh  -32.1141 -11.3478 30.2593
L_Calf  29.3161 -0.515255 4.13795
L_Foot  -4.76381 -18.3769 -1.33683
L_Toe0  0.506126 0.0344371 -6.13524
R_Thigh  -7.38219 -4.06671 13.9028
R_Calf  33.1214 -5.70814 -17.9058
R_Foot  0.0932387 0.035537 -1.71557
R_Toe0  14.2979 -3.04122 -7.87615
189
root  -8.92428 29.9848 7.35978 -111.126 2.15518 76.4666
Spine  4.07424 13.5446 16.4528
Spine1  0.51854 -2.91205 -11.1561
Neck  3.97569e-016 0 -2.38542e-015
Head  14.3454 -7.01558 4.48933
R_Clavicle  -0.26169 -9.9885 -4.01368
R_UpperArm  42.2527 12.4736 24.8752
R_Forearm  -4.72443 -44.7026 31.5094
R_Hand  -0.00290585 4.12343 -7.72477
L_Clavicle  -0.0275169 11.1542 -6.54627
L_UpperArm  43.1383 -3.86683 -4.54662
L_Forearm  24.8979 13.9985 16.7816
L_Hand  -0.644051 2.13007 -9.42551
L_Thigh  -31.566 -10.1171 22.2969
L_Calf  22.5354 -0.763319 5.6314
L_Foot  -3.15783 -13.4186 3.0674
L_Toe0  0.515096 0.034364 -6.12729
R_Thigh  -6.69596 -1.60105 14.4496
R_Calf  18.0858 -4.19322 -13.0797
R_Foot  -1.27519 -5.47913 -1.8972
R_Toe0  17.0166 -4.17966 -5.26824
190
root  -8.77854 30.8027 6.81723 -108.379 2.01327 77.8944
Spine  1.95475 10.9884 12.3062
Spine1  -0.953281 1.05646 -10.7145
Neck  3.97569e-016 0 -2.38542e-015
Head  15.1701 -6.80225 6.76823
R_Clavicle  -0.0807568 -11.8348 -3.16288
R_UpperArm  42.4784 7.85382 26.9538
R_Forearm  -2.01442 -43.8376 30.4766
R_Hand  -0.0941487 4.02017 -8.6487
L_Clavicle  -0.138049 12.1122 -5.78761
L_UpperArm  40.0599 -1.85604 -3.64803
L_Forearm  22.876 13.2772 15.8576
L_Hand  -0.747024 2.01898 -11.0724
L_Thigh  -27.6816 -9.58097 16.1535
L_Calf  13.8625 -0.219928 1.61513
L_Foot  1.01943 -1.41899 7.20722
L_Toe0  0.460465 0.0380629 -6.17655
R_Thigh  -5.87245 0.821205 15.1033
R_Calf  5.57561 -1.78727 -5.55077
R_Foot  -0.667772 -2.70891 -0.739234
R_Toe0  6.52545 -1.88459 -6.55767
191
root  -8.65051 31.3277 6.35385 -104.884 2.24714 79.1655
Spine  0.127017 8.11031 8.22317
Spine1  -2.33452 5.80542 -10.113
Neck  3.97569e-016 0 -2.38542e-015
Head  15.5958 -6.59496 8.63218
R_Clavicle  0.0561316 -13.6329 -2.50502
R_UpperArm  43.5539 3.53146 30.8706
R_Forearm  1.43909 -42.9651 30.2415
R_Hand  -0.368694 4.62712 -11.9971
L_Clavicle  -0.286153 13.7391 -4.94337
L_UpperArm  36.5199 -1.27628 -4.00442
L_Forearm  20.5802 10.8397 12.8113
L_Hand  -0.855334 2.05167 -12.6278
L_Thigh  -21.7951 -9.6933 10.2488
L_Calf  9.74403 0.125266 -1.01464
L_Foot  2.26246 1.11595 9.21127
L_Toe0  1.06312 0.0134552 -5.63502
R_Thigh  -4.65964 2.79401 16.232
R_Calf  3.33814 1.30036 4.03991
R_Foot  0.355733 1.75304 1.51777
R_Toe0  -2.57325 -0.118375 -18.2598
192
root  -8.59566 31.6689 5.96905 -101.1 2.39364 80.0475
Spine  -1.44998 5.31613 4.41088
Spine1  -3.49953 9.84094 -8.98979
Neck  3.97569e-016 0 -2.38542e-015
Head  14.9119 -5.84089 10.2177
R_Clavicle  0.172667 -15.5999 -1.94726
R_UpperArm  44.7563 -0.347673 36.0787
R_Forearm  6.22615 -42.0602 30.1768
R_Hand  -0.484183 5.23122 -13.5248
L_Clavicle  -0.396544 15.165 -4.19704
L_UpperArm  33.2302 -1.73914 -6.28276
L_Forearm  19.546 7.33667 8.57812
L_Hand  -0.861317 2.47246 -12.0353
L_Thigh  -16.6529 -9.99779 3.98444
L_Calf  9.05618 -0.0148823 -0.12304
L_Foot  1.67249 -0.49485 8.92705
L_Toe0  4.42576 -0.242662 -2.65494
R_Thigh  -3.46168 3.90424 16.7533
R_Calf  3.37855 4.92274 15.5108
R_Foot  0.277142 2.34115 4.13363
R_Toe0  -1.78853 -0.272788 -17.3235
193
root  -8.6115 31.6902 5.58809 -97.1603 1.81894 80.751
Spine  -2.97704 2.82165 1.50228
Spine1  -4.67588 12.7219 -7.65412
Neck  3.97569e-016 0 -2.38542e-015
Head  13.6729 -4.71011 11.6811
R_Clavicle  0.270858 -17.2895 -1.16885
R_UpperArm  45.1288 -4.35904 41.4295
R_Forearm  10.0498 -41.2254 29.865
R_Hand  -0.401832 5.73229 -13.0806
L_Clavicle  -0.457496 16.0779 -3.44231
L_UpperArm  30.2698 -2.7913 -10.1802
L_Forearm  18.6131 3.17045 3.6864
L_Hand  -0.83152 2.96583 -10.946
L_Thigh  -13.8169 -10.2294 -2.86025
L_Calf  6.60961 -0.519144 3.4672
L_Foot  2.72884 2.02379 9.85264
L_Toe0  7.29057 -0.750857 0.188682
R_Thigh  -3.0971 4.89732 16.3864
R_Calf  -0.156267 7.94122 25.7405
R_Foot  -0.633243 -0.793931 3.54302
R_Toe0  -1.78853 -0.272788 -17.3235
194
root  -8.64288 31.2673 5.21703 -92.5159 0.811014 81.3063
Spine  -4.86667 0.264149 -0.0553387
Spine1  -6.28691 15.2215 -7.09179
Neck  3.97569e-016 0 -2.38542e-015
Head  12.7634 -3.37915 12.9831
R_Clavicle  0.325605 -18.186 -0.43303
R_UpperArm  44.4033 -9.12633 46.7198
R_Forearm  11.6192 -39.9016 28.6524
R_Hand  -0.322317 6.05898 -12.5787
L_Clavicle  -0.473439 16.4016 -2.50263
L_UpperArm  27.5979 -4.41052 -15.7689
L_Forearm  16.7366 -1.16323 -1.33201
L_Hand  -0.827089 3.30158 -10.4667
L_Thigh  -12.0303 -10.2412 -8.83269
L_Calf  4.4397 -1.01648 7.0707
L_Foot  5.58214 6.78113 14.4249
L_Toe0  6.45691 -0.840266 1.50675
R_Thigh  -5.64979 6.24641 16.2782
R_Calf  -1.84628 9.20741 30.3819
R_Foot  -1.29385 -6.27236 -2.94274
R_Toe0  -1.78853 -0.272788 -17.3235
195
root  -8.69294 30.5747 4.85518 -87.3893 -0.143016 81.3857
Spine  -7.06028 -2.8564 -0.425592
Spine1  -8.09483 18.0504 -6.96279
Neck  3.97569e-016 0 -2.38542e-015
Head  12.2869 -1.45797 12.6398
R_Clavicle  0.342377 -18.491 -0.163101
R_UpperArm  42.4069 -13.4731 51.9092
R_Forearm  11.8981 -38.1609 26.6418
R_Hand  -0.322645 6.26817 -12.7143
L_Clavicle  -0.442634 15.7701 -1.52023
L_UpperArm  24.4133 -6.57328 -23.6243
L_Forearm  14.5472 -4.61839 -5.34683
L_Hand  -0.807825 3.3343 -10.1848
L_Thigh  -9.4005 -10.3933 -12.5441
L_Calf  4.82695 -1.19209 8.39802
L_Foot  8.32206 8.33725 21.5832
L_Toe0  3.69289 -0.423607 0.423012
R_Thigh  -9.82452 6.52346 16.925
R_Calf  1.29206 8.6591 28.3166
R_Foot  -0.50034 -8.11055 -9.98858
R_Toe0  -1.78853 -0.272788 -17.3235
196
root  -8.86877 29.9088 4.34171 -83.3337 -1.31018 80.1802
Spine  -9.0914 -6.77494 -0.621346
Spine1  -9.12207 20.6575 -5.36215
Neck  3.97569e-016 0 -2.38542e-015
Head  11.8306 0.714732 9.69833
R_Clavicle  0.343288 -18.642 -0.233545
R_UpperArm  39.7122 -15.6573 55.7218
R_Forearm  11.4961 -37.4267 25.4024
R_Hand  -0.369713 6.57374 -13.3049
L_Clavicle  -0.394031 14.3759 -0.768264
L_UpperArm  20.5093 -8.91869 -32.4177
L_Forearm  12.4293 -6.14282 -7.13797
L_Hand  -0.83432 3.01372 -10.9036
L_Thigh  -6.93041 -11.5103 -15.3443
L_Calf  5.08288 -1.08822 7.79142
L_Foot  10.4113 8.37987 28.0243
L_Toe0  2.83944 -0.0603293 -4.13189
R_Thigh  -9.48828 4.30003 18.2974
R_Calf  3.15724 6.30952 20.0707
R_Foot  0.0737572 -5.74867 -10.4467
R_Toe0  -1.78853 -0.272788 -17.3235
